<?xml version="1.0" standalone="no"?>
<!DOCTYPE svg PUBLIC "-//W3C//DTD SVG 20010904//EN"
 "http://www.w3.org/TR/2001/REC-SVG-20010904/DTD/svg10.dtd">
<svg version="1.0" xmlns="http://www.w3.org/2000/svg"
 width="1068.000000pt" height="1068.000000pt" viewBox="0 0 1068.000000 1068.000000"
 preserveAspectRatio="xMidYMid meet">
<metadata>
Created by potrace 1.14, written by Peter Selinger 2001-2017
</metadata>
<g transform="translate(0.000000,1068.000000) scale(0.100000,-0.100000)"
fill="#000000" stroke="none">
<path d="M2588 6935 c-1 -2 -68 -6 -148 -9 -80 -4 -163 -8 -185 -10 -22 -2
-80 -7 -130 -11 -173 -12 -200 -15 -245 -20 -25 -3 -74 -7 -110 -10 -36 -3
-85 -7 -110 -10 -25 -3 -69 -7 -97 -10 -29 -3 -77 -8 -105 -11 -59 -6 -96 -10
-183 -18 -33 -3 -80 -8 -105 -11 -127 -13 -158 -16 -190 -20 -44 -5 -136 -13
-220 -20 -130 -10 -159 -16 -184 -40 -15 -13 -26 -32 -27 -42 0 -10 -3 -27 -6
-38 -2 -11 -7 -131 -10 -266 -4 -212 -3 -250 11 -277 9 -17 26 -34 38 -37 95
-27 175 -92 215 -172 15 -32 28 -62 30 -68 1 -5 4 -21 7 -35 13 -58 16 -77 21
-115 2 -22 7 -51 10 -65 2 -14 7 -37 9 -53 3 -15 7 -35 10 -45 3 -9 7 -33 10
-52 7 -48 22 -122 40 -205 9 -38 18 -81 20 -95 5 -29 41 -188 56 -245 6 -22
13 -51 16 -65 3 -14 12 -48 20 -76 8 -28 16 -60 18 -70 3 -11 9 -31 15 -46 6
-16 8 -28 5 -28 -2 0 2 -13 11 -30 9 -16 13 -30 9 -30 -4 0 -1 -7 6 -15 7 -8
10 -15 7 -15 -8 0 17 -59 60 -145 45 -89 112 -184 183 -259 62 -66 193 -176
209 -176 6 0 11 -4 11 -9 0 -5 14 -14 30 -21 17 -7 30 -16 30 -21 0 -5 6 -9
14 -9 7 0 24 -8 37 -18 36 -27 221 -106 331 -141 113 -36 182 -53 273 -67 166
-27 200 -29 405 -29 182 0 303 6 380 19 14 3 43 7 65 10 22 4 51 8 65 11 14 2
36 7 50 9 14 2 54 12 90 21 36 8 74 18 84 20 41 9 202 68 214 77 6 6 12 8 12
5 0 -9 200 95 267 139 144 93 306 242 414 379 71 89 170 235 161 235 -4 0 -2
4 4 8 23 15 217 394 229 447 2 6 14 35 28 65 14 30 53 129 87 220 105 280 169
402 255 483 84 81 173 112 297 104 89 -7 126 -18 192 -57 93 -56 144 -145 223
-380 156 -470 372 -915 567 -1165 78 -101 211 -235 296 -299 30 -22 57 -44 58
-48 2 -5 10 -8 18 -8 8 0 14 -4 14 -10 0 -5 5 -10 11 -10 6 0 23 -9 38 -20 55
-38 286 -144 340 -155 9 -2 28 -8 44 -14 15 -6 27 -8 27 -5 0 2 10 -1 23 -8
12 -6 31 -13 42 -15 11 -2 45 -8 75 -15 30 -6 64 -12 75 -14 11 -1 34 -5 50
-7 17 -3 55 -8 85 -12 30 -4 67 -8 82 -11 14 -2 90 -6 167 -9 78 -2 145 -7
150 -10 5 -3 12 -1 15 4 4 6 18 6 35 1 16 -4 31 -6 34 -4 2 3 60 7 128 9 68 3
142 7 164 10 46 5 181 25 210 30 11 2 34 7 50 10 17 3 38 8 47 11 9 3 25 7 35
9 10 2 50 14 88 26 39 13 72 23 75 24 3 1 30 12 60 25 292 129 486 318 630
615 54 111 104 238 116 293 2 13 11 42 18 65 8 23 17 56 20 72 4 17 8 39 10
50 3 11 12 49 21 85 9 36 17 74 19 85 2 11 13 65 25 120 12 55 24 111 26 125
2 14 13 70 24 125 19 96 27 146 37 210 3 17 7 41 11 55 3 14 6 28 5 32 -3 15
39 133 64 179 48 87 97 121 207 144 51 10 54 35 42 400 -3 105 -6 197 -7 205
-1 23 -27 48 -57 55 -27 6 -68 11 -151 20 -25 2 -56 7 -70 9 -30 6 -101 16
-150 22 -57 6 -150 17 -275 35 -119 16 -139 19 -185 24 -116 14 -137 16 -170
21 -19 3 -55 7 -80 9 -25 3 -63 7 -85 10 -22 2 -62 7 -90 10 -112 12 -151 16
-175 20 -14 2 -56 7 -95 10 -38 3 -88 7 -110 9 -171 17 -254 20 -505 20 -157
0 -329 -3 -383 -7 -55 -4 -129 -10 -165 -12 -37 -3 -83 -7 -102 -10 -19 -2
-60 -7 -90 -10 -48 -5 -268 -37 -355 -51 -16 -3 -41 -7 -55 -9 -47 -6 -105
-17 -110 -20 -3 -2 -26 -6 -50 -10 -40 -6 -203 -39 -255 -51 -11 -3 -31 -7
-45 -10 -14 -2 -63 -13 -110 -24 -47 -10 -100 -22 -119 -25 -19 -3 -37 -7 -40
-9 -3 -2 -24 -7 -46 -10 -22 -4 -47 -8 -55 -11 -8 -2 -27 -6 -42 -9 -15 -3
-63 -11 -105 -20 -71 -14 -108 -20 -183 -31 -178 -27 -446 -27 -610 -1 -14 3
-45 7 -70 11 -42 7 -327 62 -360 70 -24 7 -203 46 -230 51 -14 3 -43 10 -65
16 -65 17 -498 104 -560 113 -22 3 -51 8 -65 11 -14 3 -38 8 -55 10 -16 2 -48
7 -70 10 -22 3 -56 7 -75 9 -19 2 -55 7 -80 10 -25 4 -65 8 -90 11 -25 2 -67
7 -95 9 -58 6 -661 15 -667 10z m438 -180 c77 -3 159 -8 184 -10 98 -8 167
-16 190 -20 14 -3 42 -7 64 -10 47 -6 76 -11 146 -26 30 -6 63 -12 73 -12 9
-1 17 -5 17 -10 0 -4 3 -6 8 -3 11 7 207 -48 302 -84 30 -12 69 -26 85 -32 47
-17 240 -119 243 -129 2 -5 10 -9 18 -9 8 0 14 -4 14 -9 0 -5 8 -12 18 -15 28
-9 156 -135 194 -191 85 -124 109 -214 103 -385 -5 -141 -8 -168 -24 -260 -7
-36 -14 -74 -16 -85 -5 -32 -26 -118 -32 -135 -3 -8 -8 -24 -10 -35 -3 -20
-39 -136 -50 -165 -4 -8 -7 -17 -8 -20 -16 -45 -80 -209 -89 -225 -6 -11 -11
-22 -11 -25 -2 -16 -103 -205 -137 -255 -114 -169 -287 -351 -440 -464 -91
-67 -328 -201 -328 -186 0 4 -6 3 -12 -3 -36 -28 -260 -94 -355 -104 -7 -1
-13 -4 -13 -7 0 -3 -15 -6 -33 -7 -17 0 -52 -4 -77 -9 -59 -10 -315 -26 -425
-27 -41 0 -246 13 -265 17 -14 3 -44 8 -68 10 -44 5 -155 33 -247 62 -70 22
-248 108 -264 127 -7 9 -18 16 -23 16 -16 0 -127 92 -190 157 -184 189 -330
506 -373 808 -3 23 -8 52 -10 65 -26 129 -26 653 0 780 3 14 7 39 10 55 26
170 102 368 185 478 56 76 215 207 250 207 5 0 10 4 10 8 0 5 19 15 43 22 23
8 51 20 62 26 11 7 23 13 27 14 4 0 13 2 20 5 58 18 89 26 109 30 13 3 38 8
54 12 17 4 32 7 35 8 11 3 116 19 135 21 54 6 164 16 200 19 22 2 152 6 289 9
137 3 251 8 254 11 3 2 8 2 12 0 4 -3 70 -7 146 -10z m5314 -29 c343 -31 571
-81 746 -163 106 -50 151 -81 229 -158 68 -66 99 -110 140 -197 78 -165 95
-291 90 -653 -3 -154 -6 -298 -9 -320 -2 -22 -7 -69 -10 -105 -3 -36 -8 -76
-11 -90 -3 -14 -7 -47 -10 -75 -4 -42 -35 -199 -50 -257 -3 -10 -7 -26 -9 -36
-2 -10 -16 -54 -31 -98 -96 -282 -271 -491 -512 -612 -73 -37 -262 -104 -273
-97 -5 3 -11 1 -14 -4 -3 -5 -30 -12 -59 -16 -28 -4 -61 -9 -72 -12 -75 -15
-277 -32 -410 -34 -43 -1 -310 11 -332 15 -15 3 -52 8 -82 11 -30 4 -63 9 -75
11 -12 2 -34 7 -51 10 -164 29 -415 117 -525 183 -8 5 -46 29 -85 52 -38 23
-72 45 -75 48 -3 3 -27 24 -55 45 -70 55 -176 160 -234 231 -122 150 -251 377
-311 545 -13 36 -27 69 -32 74 -4 6 -8 22 -8 36 0 14 -4 30 -9 36 -5 5 -27 82
-50 171 -40 158 -43 176 -56 258 -7 47 -13 80 -20 115 -14 60 -13 307 1 370
31 148 141 307 278 405 70 50 208 125 230 125 8 0 16 3 18 8 3 7 147 59 186
67 12 2 27 7 33 10 5 4 20 8 32 10 12 2 40 8 62 14 22 5 54 12 70 15 17 3 41
8 55 11 45 9 144 24 205 30 33 4 71 8 85 11 14 2 75 7 135 10 61 3 112 8 114
10 5 4 700 -5 761 -10z"/>
</g>
</svg>
